# AST/ASF file generated using VICON BodyLanguage
# -----------------------------------------------
:version 1.10
:name VICON
:units
  mass 1.0
  length 0.45
  angle deg
:documentation
   .ast/.asf automatically generated from VICON data using
   VICON BodyBuilder and BodyLanguage model FoxedUp or BRILLIANT.MOD
:root
   order TX TY TZ RX RY RZ
   axis XYZ
   position 0 0 0  
   orientation 0 0 0 
:bonedata
  begin
     id 1 
     name lhipjoint
     direction 0.646657 -0.683706 0.338203 
     length 2.4948 
     axis 0 0 0  XYZ
  end
  begin
     id 2 
     name lfemur
     direction 0.34202 -0.939693 0  
     length 6.79491  
     axis 0 0 20  XYZ
    dof rx ry rz
    limits (-160.0 20.0)
           (-70.0 70.0)
           (-60.0 70.0)
  end
  begin
     id 3 
     name ltibia
     direction 0.34202 -0.939693 0   
     length 7.56807   
     axis 0 0 20   XYZ
    dof rx
    limits (-10.0 170.0)
  end
  begin
     id 4 
     name lfoot
     direction 0.0679796 -0.186772 0.980048   
     length 2.53018   
     axis -90 7.62852e-016 20   XYZ
    dof rx rz
    limits (-45.0 90.0)
           (-70.0 20.0)
  end
  begin
     id 5 
     name ltoes
     direction 1.53625e-011 -4.21881e-011 1   
     length 1.26912   
     axis -90 7.62852e-016 20   XYZ
    dof rx
    limits (-90.0 20.0)
  end
  begin
     id 6 
     name rhipjoint
     direction -0.618868 -0.704065 0.348274   
     length 2.42265  
     axis 0 0 0  XYZ 
  end
  begin
     id 7 
     name rfemur
     direction -0.34202 -0.939693 0   
     length 6.73814   
     axis 0 0 -20   XYZ
    dof rx ry rz
    limits (-160.0 20.0)
           (-70.0 70.0)
           (-70.0 60.0)
  end
  begin
     id 8 
     name rtibia
     direction -0.34202 -0.939693 0   
     length 7.66799   
     axis 0 0 -20   XYZ
    dof rx
    limits (-10.0 170.0)
 end
 begin
     id 9 
     name rfoot
     direction -0.0727352 -0.199838 0.977125   
     length 2.57224  
     axis -90 -7.62852e-016 -20   XYZ
    dof rx rz
    limits (-45.0 90.0)
           (-20.0 70.0)
  end
  begin
     id 10 
     name rtoes
     direction -1.53501e-011 -4.21858e-011 1   
     length 1.28858   
     axis -90 -7.62852e-016 -20   XYZ
    dof rx
    limits (-90.0 20.0)
  end
  begin
     id 11 
     name lowerback
     direction -0.0172471 0.995767 -0.0902851   
     length 2.20206   
     axis 0 0 0   XYZ
    dof rx ry rz
    limits (-20.0 45.0)
           (-30.0 30.0)
           (-30.0 30.0)
  end
  begin
     id 12 
     name upperback
     direction -0.000110737 0.999714 0.0239043   
     length 2.19523   
     axis 0 0 0   XYZ
    dof rx ry rz
    limits (-20.0 45.0)
           (-30.0 30.0)
           (-30.0 30.0)
  end
  begin
     id 13 
     name thorax
     direction 0.00704869 0.997783 0.0661741   
     length 2.21977   
     axis 0 0 0   XYZ
    dof rx ry rz
    limits (-20.0 45.0)
           (-30.0 30.0)
           (-30.0 30.0)
  end
  begin
     id 14 
     name lowerneck
     direction -0.00407501 0.995527 0.0943846   
     length 1.83142   
     axis 0 0 0   XYZ
    dof rx ry rz
    limits (-20.0 45.0)
           (-30.0 30.0)
           (-30.0 30.0)
  end
  begin
     id 15 
     name upperneck
     direction 0.0640586 0.986486 -0.150807   
     length 1.84616   
     axis 0 0 0   XYZ
    dof rx ry rz
    limits (-20.0 45.0)
           (-30.0 30.0)
           (-30.0 30.0)
  end
  begin
     id 16
     name head
     direction 0.0188017 0.99791 -0.0618239  
     length 1.85932  
     axis 0 0 0   XYZ
    dof rx ry rz
    limits (-20.0 45.0)
           (-30.0 30.0)
           (-30.0 30.0)
  end
  begin
     id 17 
     name lclavicle
     direction 0.976074 0.206905 0.066852  
     length 3.81043  
     axis 0 0 0   XYZ
    dof ry rz
    limits (-20.0 10.0)
           (0.0 20.0)
  end
  begin
     id 18 
     name lhumerus
     direction 1 -4.48971e-011 1.86916e-027   
     length 5.37587   
     axis 180 -30 -90   XYZ
    dof rx ry rz
    limits (-60.0 90.0)
           (-90.0 90.0)
           (-90.0 90.0)
  end
  begin
     id 19
     name lradius
     direction 1 -4.48968e-011 1.69187e-027   
     length 3.35977   
     axis 180 -30 -90   XYZ
    dof rx
    limits (-10.0 170.0)
  end
  begin
     id 20
     name lwrist
     direction 1 -4.48968e-011 5.8978e-027   
     length 1.67988   
     axis -3.27506e-015 90 90   XYZ
    dof ry
    limits (-180.0 0.0)
 end
  begin
     id 21 
     name lhand
     direction 1 -4.49028e-011 1.18071e-026   
     length 0.561859   
     axis -7.52654e-015 90 90   XYZ
    dof rx rz
    limits (-90.0 90.0)
           (-45.0 45.0)
  end
  begin
     id 22 
     name lfingers
     direction 1 -4.48927e-011 2.35758e-026   
     length 0.452985   
     axis -1.50534e-014 90 90   XYZ
    dof rx
    limits (0.0 90.0)
  end
  begin
     id 23
     name lthumb
     direction 0.707107 -6.34898e-011 0.707107   
     length 0.650399   
     axis -90 45 5.69224e-014   XYZ
    dof rx rz
    limits (-45.0 45.0)
           (-45.0 45.0)
  end
  begin
     id 24 
     name rclavicle
     direction -0.988403 0.151789 0.00439714   
     length 3.6942  
     axis 0 0 0   XYZ 
    dof ry rz
    limits (-10.0 20.0)
           (-20.0 0.0)
  end
  begin
     id 25 
     name rhumerus
     direction -1 -4.48978e-011 1.62495e-027  
     length 5.22819   
     axis 180 30 90   XYZ
    dof rx ry rz
    limits (-90.0 60.0)
           (-90.0 90.0)
           (-90.0 90.0)
  end
  begin
     id 26 
     name rradius
     direction -1 -4.48961e-011 3.47796e-027   
     length 3.40764   
     axis 180 30 90   XYZ
    dof rx
    limits (-10.0 170.0)
  end
  begin
     id 27 
     name rwrist
     direction -1 -4.48949e-011 5.89602e-027   
     length 1.70382   
     axis -3.27506e-015 -90 -90   XYZ
    dof ry
    limits (-180.0 0.0)
  end
  begin
     id 28
     name rhand
     direction -1 -4.48977e-011 1.17973e-026   
     length 0.583255   
     axis -7.52654e-015 -90 -90   XYZ
    dof rx rz
    limits (-90.0 90.0)
           (-45.0 45.0)
  end
  begin
     id 29
     name rfingers
     direction -1 -4.49099e-011 2.36408e-026   
     length 0.470235   
     axis -1.50534e-014 -90 -90   XYZ
    dof rx
    limits (0.0 90.0)
  end
  begin
     id 30
     name rthumb
     direction -0.707107 -6.35011e-011 0.707107   
     length 0.675167   
     axis -90 -45 -5.69224e-014   XYZ
    dof rx rz
    limits (-45.0 45.0)
           (-45.0 45.0)
  end
:hierarchy
  begin
    root lhipjoint rhipjoint lowerback
    lhipjoint lfemur
    lfemur ltibia
    ltibia lfoot
    lfoot ltoes
    rhipjoint rfemur
    rfemur rtibia
    rtibia rfoot
    rfoot rtoes
    lowerback upperback
    upperback thorax
    thorax lowerneck lclavicle rclavicle
    lowerneck upperneck
    upperneck head
    lclavicle lhumerus
    lhumerus lradius
    lradius lwrist
    lwrist lhand lthumb
    lhand lfingers
    rclavicle rhumerus
    rhumerus rradius
    rradius rwrist
    rwrist rhand rthumb
    rhand rfingers
  end

#!OML:ASF G:\JayActor3\Patient Classification 1\Patient 1\Session 2\male.ASF
:FULLY-SPECIFIED
:DEGREES
1531
root -27.4368 16.4524 -5.3567 -326.853 -254.02 35.8289
lowerback -6.7971 -0.892644 1.53601
upperback -1.34049 -1.29755 2.08317
thorax 2.44098 -0.616 1.17098
lowerneck -6.3119 -8.05907 -10.5344
upperneck 0.568289 -10.3507 13.4421
head 2.47995 -4.86969 5.26668
rclavicle -2.38542e-014 -1.59028e-015
rhumerus -33.5268 6.64521 -85.852
rradius 23.9889
rwrist 2.03631
rhand -21.243 3.53143
rfingers 7.12502
rthumb 5.13971 -26.3862
lclavicle -2.38542e-014 -1.59028e-015
lhumerus -45.9008 14.1078 69.7163
lradius 21.3206
lwrist 7.21871
lhand -23.6327 15.7852
lfingers 7.12502
lthumb 2.8321 45.7461
rfemur -1.17251 -6.12726 37.7666
rtibia 25.2664
rfoot -23.75 -6.40116
rtoes 17.9107
lfemur -32.67 -8.66082 -9.40131
ltibia 63.6519
lfoot -11.6519 8.47736
ltoes -25.3331
1532
root -27.3657 16.4559 -5.36106 -327.011 -253.933 35.5617
lowerback -6.75498 -0.717793 1.64128
upperback -1.33144 -1.06924 1.87525
thorax 2.41855 -0.502708 0.917879
lowerneck -6.10204 -8.35022 -10.8683
upperneck 0.319317 -10.7297 13.7916
head 2.45801 -5.05995 5.40879
rclavicle -1.09332e-014 1.03368e-014
rhumerus -33.1299 7.27732 -86.2887
rradius 24.504
rwrist 1.56927
rhand -21.2116 3.44905
rfingers 7.12502
rthumb 5.17004 -26.4679
lclavicle -1.09332e-014 1.03368e-014
lhumerus -46.0253 13.9204 69.3448
lradius 21.4101
lwrist 7.33575
lhand -23.8355 15.7133
lfingers 7.12502
lthumb 2.63623 45.6767
rfemur -0.760079 -6.16867 37.7887
rtibia 24.7476
rfoot -23.7502 -6.43152
rtoes 17.7978
lfemur -33.2848 -8.6485 -9.46125
ltibia 62.2635
lfoot -11.7539 8.13641
ltoes -25.1165
1533
root -27.2941 16.4592 -5.36534 -327.134 -253.852 35.3113
lowerback -6.72565 -0.556231 1.74603
upperback -1.32793 -0.858505 1.67231
thorax 2.40007 -0.398013 0.66843
lowerneck -5.90853 -8.62198 -11.1753
upperneck 0.0862611 -11.0845 14.1205
head 2.44034 -5.23812 5.54098
rclavicle 5.56597e-015 -1.11319e-014
rhumerus -32.7387 7.90882 -86.7001
rradius 25.0546
rwrist 1.06982
rhand -21.1783 3.38486
rfingers 7.12502
rthumb 5.20221 -26.5313
lclavicle 5.56597e-015 -1.11319e-014
lhumerus -46.1583 13.7444 68.9801
lradius 21.4873
lwrist 7.42459
lhand -23.9523 15.6308
lfingers 7.12502
lthumb 2.52343 45.5956
rfemur -0.356855 -6.21088 37.8127
rtibia 24.2156
rfoot -23.7427 -6.45525
rtoes 17.6664
lfemur -33.8452 -8.6208 -9.51777
ltibia 60.7891
lfoot -11.8377 7.61473
ltoes -24.8183
1534
root -27.2214 16.4618 -5.36998 -327.222 -253.787 35.0856
lowerback -6.71356 -0.401142 1.84753
upperback -1.32686 -0.656337 1.47201
thorax 2.39098 -0.297444 0.422618
lowerneck -5.73011 -8.87811 -11.4551
upperneck -0.120542 -11.4214 14.4279
head 2.42994 -5.40715 5.66235
rclavicle 2.87244e-014 -1.11319e-014
rhumerus -32.3545 8.52748 -87.0862
rradius 25.6317
rwrist 0.571657
rhand -21.1716 3.33202
rfingers 7.12502
rthumb 5.20869 -26.584
lclavicle 2.87244e-014 -1.11319e-014
lhumerus -46.2925 13.5825 68.6198
lradius 21.5414
lwrist 7.48273
lhand -24.0002 15.5385
lfingers 7.12502
lthumb 2.47719 45.5038
rfemur 0.0448742 -6.25088 37.8307
rtibia 23.6769
rfoot -23.7224 -6.46628
rtoes 17.5205
lfemur -34.338 -8.5935 -9.57608
ltibia 59.2299
lfoot -11.9094 6.93753
ltoes -24.4881
1535
root -27.1474 16.4636 -5.37494 -327.318 -253.734 34.8534
lowerback -6.70417 -0.253324 1.93614
upperback -1.32762 -0.462819 1.27432
thorax 2.38365 -0.201189 0.185962
lowerneck -5.55608 -9.12041 -11.7222
upperneck -0.305922 -11.7427 14.7277
head 2.42537 -5.56844 5.77977
rclavicle -6.36111e-015 -2.22639e-014
rhumerus -31.9788 9.11729 -87.4417
rradius 26.2207
rwrist 0.0917134
rhand -21.1951 3.31949
rfingers 7.12502
rthumb 5.186 -26.5971
lclavicle -6.36111e-015 -2.22639e-014
lhumerus -46.4252 13.4434 68.2585
lradius 21.5616
lwrist 7.50149
lhand -24.0013 15.4917
lfingers 7.12502
lthumb 2.4761 45.4571
rfemur 0.46026 -6.28743 37.8372
rtibia 23.1292
rfoot -23.6853 -6.47129
rtoes 17.3808
lfemur -34.7455 -8.5782 -9.64204
ltibia 57.5802
lfoot -11.9362 6.14048
ltoes -24.3031
1536
root -27.0712 16.4657 -5.38082 -327.409 -253.716 34.6372
lowerback -6.70599 -0.103768 2.01078
upperback -1.3218 -0.266454 1.07715
thorax 2.3914 -0.103453 -0.0421062
lowerneck -5.3913 -9.35152 -11.982
upperneck -0.471098 -12.0512 15.0255
head 2.4279 -5.72305 5.89529
rclavicle 1.80894e-014 3.18055e-015
rhumerus -31.604 9.67064 -87.7655
rradius 26.8166
rwrist -0.362891
rhand -21.2561 3.33284
rfingers 7.12502
rthumb 5.12709 -26.5851
lclavicle 1.80894e-014 3.18055e-015
lhumerus -46.5475 13.3232 67.9036
lradius 21.5468
lwrist 7.48989
lhand -23.9727 15.4943
lfingers 7.12502
lthumb 2.50377 45.4594
rfemur 0.907312 -6.29775 37.8224
rtibia 22.5691
rfoot -23.624 -6.46633
rtoes 17.2676
lfemur -35.0445 -8.56951 -9.72433
ltibia 55.8398
lfoot -11.919 5.27128
ltoes -24.3128
1537
root -26.9931 16.4683 -5.38741 -327.526 -253.732 34.4097
lowerback -6.70771 0.0473128 2.06505
upperback -1.31094 -0.0666395 0.877508
thorax 2.40625 -0.00402618 -0.260931
lowerneck -5.2263 -9.57343 -12.2406
upperneck -0.623764 -12.3497 15.3292
head 2.43496 -5.87267 6.0127
rclavicle 1.21259e-014 3.02153e-014
rhumerus -31.2354 10.1768 -88.0612
rradius 27.4127
rwrist -0.787534
rhand -21.3371 3.35894
rfingers 7.12502
rthumb 5.0489 -26.5609
lclavicle 1.21259e-014 3.02153e-014
lhumerus -46.6552 13.2263 67.5483
lradius 21.4872
lwrist 7.44829
lhand -23.9353 15.5387
lfingers 7.12502
lthumb 2.53982 45.5034
rfemur 1.39327 -6.27556 37.7828
rtibia 21.992
rfoot -23.533 -6.45937
rtoes 17.207
lfemur -35.2319 -8.56677 -9.829
ltibia 54.0108
lfoot -11.8475 4.35712
ltoes -24.4329
1538
root -26.9132 16.4713 -5.39433 -327.685 -253.774 34.1561
lowerback -6.70684 0.19678 2.09539
upperback -1.29366 0.132754 0.676473
thorax 2.428 0.0951666 -0.467715
lowerneck -5.06734 -9.78855 -12.5019
upperneck -0.762434 -12.6409 15.642
head 2.44881 -6.01826 6.13299
rclavicle 1.96797e-014 1.59028e-014
rhumerus -30.871 10.6311 -88.3313
rradius 28.0015
rwrist -1.17119
rhand -21.449 3.39603
rfingers 7.12502
rthumb 4.94082 -26.5264
lclavicle 1.96797e-014 1.59028e-014
lhumerus -46.7429 13.1532 67.1953
lradius 21.3826
lwrist 7.37495
lhand -23.9079 15.6303
lfingers 7.12502
lthumb 2.5663 45.5947
rfemur 1.91566 -6.22195 37.7226
rtibia 21.3969
rfoot -23.4201 -6.46574
rtoes 17.1472
lfemur -35.3169 -8.57739 -9.95103
ltibia 52.1069
lfoot -11.7286 3.43396
ltoes -24.6451
1539
root -26.8317 16.4749 -5.40164 -327.881 -253.846 33.8772
lowerback -6.7081 0.34591 2.10406
upperback -1.26973 0.333299 0.470732
thorax 2.45936 0.194986 -0.666958
lowerneck -4.91672 -9.99597 -12.766
upperneck -0.89063 -12.923 15.9687
head 2.46895 -6.15875 6.25779
rclavicle 6.61953e-014 1.03368e-014
rhumerus -30.5117 11.0471 -88.5905
rradius 28.5668
rwrist -1.47991
rhand -21.6472 3.46524
rfingers 7.12502
rthumb 4.74942 -26.4615
lclavicle 6.61953e-014 1.03368e-014
lhumerus -46.8102 13.0963 66.8453
lradius 21.2367
lwrist 7.28026
lhand -23.8823 15.7095
lfingers 7.12502
lthumb 2.59105 45.6735
rfemur 2.46468 -6.12624 37.6403
rtibia 20.7939
rfoot -23.2914 -6.4811
rtoes 17.1099
lfemur -35.3086 -8.59851 -10.0917
ltibia 50.145
lfoot -11.5767 2.51487
ltoes -24.7915
1540
root -26.749 16.4789 -5.40904 -328.112 -253.944 33.5655
lowerback -6.70927 0.491211 2.097
upperback -1.24671 0.530467 0.256459
thorax 2.49108 0.293194 -0.866351
lowerneck -4.77516 -10.1943 -13.0282
upperneck -1.00371 -13.1947 16.3058
head 2.49606 -6.29347 6.38525
rclavicle -2.13694e-014 -1.43125e-014
rhumerus -30.1663 11.4256 -88.8526
rradius 29.1074
rwrist -1.71742
rhand -21.9248 3.56127
rfingers 7.12502
rthumb 4.48136 -26.3713
lclavicle -2.13694e-014 -1.43125e-014
lhumerus -46.8665 13.0431 66.4967
lradius 21.058
lwrist 7.18359
lhand -23.8699 15.7426
lfingers 7.12502
lthumb 2.60305 45.7065
rfemur 3.02156 -6.00029 37.5386
rtibia 20.1946
rfoot -23.1532 -6.50485
rtoes 17.0588
lfemur -35.2318 -8.62518 -10.244
ltibia 48.1506
lfoot -11.4205 1.60971
ltoes -24.7638
1541
root -26.6654 16.4828 -5.41661 -328.352 -254.065 33.2415
lowerback -6.72036 0.631166 2.07739
upperback -1.22229 0.72168 0.0396584
thorax 2.53089 0.388641 -1.06162
lowerneck -4.65266 -10.3809 -13.2855
upperneck -1.10817 -13.4504 16.6406
head 2.52777 -6.41947 6.51125
rclavicle -1.03368e-014 -1.90833e-014
rhumerus -29.826 11.7865 -89.1158
rradius 29.6254
rwrist -1.90865
rhand -22.2672 3.66523
rfingers 7.12502
rthumb 4.15078 -26.2741
lclavicle -1.03368e-014 -1.90833e-014
lhumerus -46.9187 12.9737 66.1778
lradius 20.8752
lwrist 7.09606
lhand -23.8621 15.7757
lfingers 7.12502
lthumb 2.61051 45.7394
rfemur 3.57163 -5.84064 37.4241
rtibia 19.6114
rfoot -23.0084 -6.54494
rtoes 16.9585
lfemur -35.1022 -8.6463 -10.4031
ltibia 46.1501
lfoot -11.2599 0.733055
ltoes -24.6234
1542
root -26.5807 16.4867 -5.42469 -328.569 -254.214 32.9298
lowerback -6.74973 0.772522 2.05786
upperback -1.20321 0.915318 -0.185267
thorax 2.57695 0.485634 -1.26476
lowerneck -4.52766 -10.5556 -13.5189
upperneck -1.20952 -13.6918 16.9597
head 2.55656 -6.53896 6.62982
rclavicle -1.48095e-014 -1.59028e-015
rhumerus -29.5037 12.1125 -89.3859
rradius 30.1309
rwrist -2.07793
rhand -22.6393 3.74703
rfingers 7.12502
rthumb 3.79146 -26.199
lclavicle -1.48095e-014 -1.59028e-015
lhumerus -46.9733 12.8563 65.8917
lradius 20.6931
lwrist 7.04024
lhand -23.8447 15.7678
lfingers 7.12502
lthumb 2.62733 45.7313
rfemur 4.10749 -5.65573 37.2986
rtibia 19.049
rfoot -22.8596 -6.58368
rtoes 16.8113
lfemur -34.9354 -8.66225 -10.561
ltibia 44.1739
lfoot -11.1032 -0.0999182
ltoes -24.3753
1543
root -26.4949 16.49 -5.43336 -328.741 -254.384 32.6521
lowerback -6.79896 0.91432 2.04382
upperback -1.19131 1.10973 -0.414167
thorax 2.6283 0.583403 -1.47458
lowerneck -4.40059 -10.7189 -13.7186
upperneck -1.30646 -13.9195 17.2453
head 2.58044 -6.65254 6.73398
rclavicle 4.27387e-014 -9.54166e-015
rhumerus -29.198 12.4165 -89.6629
rradius 30.6245
rwrist -2.26359
rhand -23.0165 3.82859
rfingers 7.12502
rthumb 3.42721 -26.1236
lclavicle 4.27387e-014 -9.54166e-015
lhumerus -47.0351 12.7008 65.6347
lradius 20.5138
lwrist 6.99215
lhand -23.8211 15.7636
lfingers 7.12502
lthumb 2.65018 45.7269
rfemur 4.62496 -5.46243 37.1669
rtibia 18.5111
rfoot -22.7095 -6.61259
rtoes 16.6093
lfemur -34.7445 -8.66489 -10.7084
ltibia 42.2514
lfoot -10.935 -0.887681
ltoes -24.1293
1544
root -26.4077 16.4926 -5.44313 -328.811 -254.584 32.468
lowerback -6.87627 1.06133 2.04725
upperback -1.18478 1.31008 -0.641453
thorax 2.69185 0.684684 -1.69131
lowerneck -4.27867 -10.8685 -13.8859
upperneck -1.39507 -14.1297 17.4937
head 2.60054 -6.75808 6.8228
rclavicle 2.00773e-014 9.54166e-015
rhumerus -28.9075 12.7116 -89.943
rradius 31.1173
rwrist -2.48504
rhand -23.3697 3.88415
rfingers 7.12502
rthumb 3.08606 -26.0733
lclavicle 2.00773e-014 9.54166e-015
lhumerus -47.1094 12.5065 65.4133
lradius 20.3473
lwrist 6.95558
lhand -23.7866 15.7707
lfingers 7.12502
lthumb 2.6835 45.7336
rfemur 5.13144 -5.26236 37.0325
rtibia 17.9895
rfoot -22.5576 -6.60991
rtoes 16.3709
lfemur -34.5333 -8.64661 -10.8346
ltibia 40.4136
lfoot -10.7648 -1.61338
ltoes -23.8658
1545
root -26.3194 16.494 -5.45392 -328.761 -254.801 32.393
lowerback -6.97865 1.20755 2.06954
upperback -1.18097 1.50792 -0.857209
thorax 2.76827 0.785254 -1.90614
lowerneck -4.17126 -11.0047 -14.0299
upperneck -1.47808 -14.3207 17.7027
head 2.61738 -6.85428 6.89672
rclavicle -3.55825e-014 -1.59028e-014
rhumerus -28.6202 13.0201 -90.2192
rradius 31.6065
rwrist -2.74173
rhand -23.6223 3.91534
rfingers 7.12502
rthumb 2.84212 -26.0455
lclavicle -3.55825e-014 -1.59028e-014
lhumerus -47.1918 12.3134 65.2184
lradius 20.1855
lwrist 6.9036
lhand -23.7305 15.7607
lfingers 7.12502
lthumb 2.73764 45.7228
rfemur 5.62736 -5.06842 36.9047
rtibia 17.4817
rfoot -22.4032 -6.57337
rtoes 16.1095
lfemur -34.3149 -8.61419 -10.9299
ltibia 38.6895
lfoot -10.5812 -2.27481
ltoes -23.5674
